<svg viewBox="0 0 24 24" xml:space="preserve" xmlns="http://www.w3.org/2000/svg" enable-background="new 0 0 24 24"><path d="M19.7 6h-3.8c-.4-2-2-3-3.9-3S8.6 4 8.1 6H4.3l-3.2 8h2.2L5 9.7 7.5 16H0v1c0 2.8 2.2 5 5 5s5-2.2 5-5v-.2L6.5 8h1.7c.4 2 2 3 3.9 3s3.4-1 3.9-3h1.5L15 14h2.2L19 9.5l2.6 6.5H14v1c0 2.8 2.2 5 5 5s5-2.2 5-5v-.2L19.7 6zM5 20c-1.3 0-2.4-1-2.8-2h5.7c-.5 1-1.6 2-2.9 2zm7-11c-1.1 0-2-.9-2-2s.9-2 2-2 2 .9 2 2-.9 2-2 2zm7 11c-1.3 0-2.4-1-2.8-2h5.7c-.5 1-1.6 2-2.9 2z" fill="#00ffdb" class="fill-1e232d"></path></svg>