<svg id="SvgjsSvg1001" width="288" height="288" xmlns="http://www.w3.org/2000/svg" version="1.1" xmlns:xlink="http://www.w3.org/1999/xlink" xmlns:svgjs="http://svgjs.com/svgjs"><defs id="SvgjsDefs1002"></defs><g id="SvgjsG1008" transform="matrix(1,0,0,1,0,0)"><svg xmlns="http://www.w3.org/2000/svg" xmlns:svgjs="http://svgjs.com/svgjs" xmlns:xlink="http://www.w3.org/1999/xlink" width="288" height="288"><svg xmlns="http://www.w3.org/2000/svg" width="288" height="288" enable-background="new 0 0 47.5 47.5" viewBox="0 0 47.5 47.5"><defs><clipPath id="a" clipPathUnits="userSpaceOnUse"><path fill="#0d63f8" d="M 0,38 38,38 38,0 0,0 0,38 Z" class="color000 svgShape colorff1231"></path></clipPath></defs><g fill="#0d63f8" class="color000 svgShape colorff1231" clip-path="url(#a)" transform="matrix(1.25 0 0 -1.25 0 47.5)"><path fill="#31a6fa" d="m 0,0 c 0,-2.209 -1.791,-4 -4,-4 l -28,0 c -2.209,0 -4,1.791 -4,4 l 0,28 c 0,2.209 1.791,4 4,4 l 28,0 c 2.209,0 4,-1.791 4,-4 L 0,0 Z" class="color3b88c3 svgShape" transform="translate(37 5)"></path><path fill="#ffffff" d="m 0,0 c 0,1.55 0.775,2.697 2.418,2.697 l 7.689,0 c 1.488,0 2.202,-1.054 2.202,-2.139 0,-1.054 -0.744,-2.14 -2.202,-2.14 l -5.457,0 0,-4.526 5.086,0 c 1.519,0 2.264,-1.055 2.264,-2.14 0,-1.054 -0.776,-2.139 -2.264,-2.139 l -5.086,0 0,-4.713 5.736,0 c 1.489,0 2.201,-1.054 2.201,-2.139 0,-1.055 -0.744,-2.14 -2.201,-2.14 l -7.999,0 C 1.023,-19.379 0,-18.449 0,-17.054 L 0,0 Z" class="colorfff svgShape" transform="translate(13.22 27.379)"></path></g></svg></svg></g></svg>