<svg id="SvgjsSvg1036" width="288" height="288" xmlns="http://www.w3.org/2000/svg" version="1.1" xmlns:xlink="http://www.w3.org/1999/xlink" xmlns:svgjs="http://svgjs.com/svgjs"><defs id="SvgjsDefs1037"></defs><g id="SvgjsG1038"><svg xmlns="http://www.w3.org/2000/svg" xmlns:svgjs="http://svgjs.com/svgjs" xmlns:xlink="http://www.w3.org/1999/xlink" width="288" height="288"><svg xmlns="http://www.w3.org/2000/svg" xmlns:svgjs="http://svgjs.com/svgjs" xmlns:xlink="http://www.w3.org/1999/xlink" width="288" height="288"><svg xmlns="http://www.w3.org/2000/svg" xmlns:svgjs="http://svgjs.com/svgjs" xmlns:xlink="http://www.w3.org/1999/xlink" width="288" height="288"><svg xmlns="http://www.w3.org/2000/svg" xmlns:svgjs="http://svgjs.com/svgjs" xmlns:xlink="http://www.w3.org/1999/xlink" width="288" height="288"><svg xmlns="http://www.w3.org/2000/svg" width="288" height="288" enable-background="new 0 0 64 64" viewBox="0 0 64 64"><rect width="14.9" height="2" x="13.55" y="13" fill="#fff208" class="color68607c svgShape color00ffdb colorf5f5f5 color8596c1" transform="rotate(-20.016 21.003 14)"></rect><rect width="2" height="22.627" x="42" y="9.686" fill="#fff208" class="color68607c svgShape color00ffdb colorf5f5f5 color8596c1" transform="rotate(-45.001 43 21)"></rect><rect width="1.999" height="12.113" x="42" y="24.444" fill="#fff208" class="color68607c svgShape color00ffdb colorf5f5f5 color8596c1" transform="rotate(-82.172 42.998 30.5)"></rect><rect width="2" height="17.889" x="20" y="14.556" fill="#fff208" class="color68607c svgShape color00ffdb colorf5f5f5 color8596c1" transform="rotate(-63.435 21.002 23.501)"></rect><rect width="2.001" height="16.018" x="19.825" y="41.406" fill="#fff208" class="color68607c svgShape color00ffdb colorf5f5f5 color8596c1" transform="rotate(-63.409 20.826 49.417)"></rect><rect width="2" height="17" x="31" y="33" fill="#fff208" class="color68607c svgShape color00ffdb colorf5f5f5 color8596c1"></rect><rect width="30.974" height="2" x="5.513" y="26" fill="#fff208" class="color68607c svgShape color00ffdb colorf5f5f5 color8596c1" transform="rotate(-57.037 21.002 27.001)"></rect><rect width="22.832" height="2" x="31.824" y="42.25" fill="#fff208" class="color68607c svgShape color00ffdb colorf5f5f5 color8596c1" transform="rotate(-46.267 43.238 43.247)"></rect><rect width="2" height="32.257" x="19.785" y="20.006" fill="#fff208" class="color68607c svgShape color00ffdb colorf5f5f5 color8596c1" transform="rotate(-30.717 20.787 36.137)"></rect><path fill="#ff2965" d="M17,44c0,1.13-0.26,2.19-0.74,3.13C15.12,49.43,12.74,51,10,51c-3.87,0-7-3.13-7-7s3.13-7,7-7  c1.41,0,2.71,0.41,3.8,1.12C15.73,39.37,17,41.53,17,44z" class="color4e9bb9 svgShape colorff2965"></path><path fill="#00ffdb" d="M37.31,49.45C38.37,50.67,39,52.26,39,54c0,3.87-3.13,7-7,7s-7-3.13-7-7c0-0.81,0.14-1.58,0.39-2.3  c0.48-1.41,1.4-2.6,2.6-3.44C29.12,47.46,30.5,47,32,47C34.13,47,36.04,47.95,37.31,49.45z" class="color91cbd7 svgShape colorfff208"></path><path fill="#fff208" d="M54,25c3.87,0,7,3.13,7,7s-3.13,7-7,7c-1.88,0-3.58-0.73-4.83-1.95C47.83,35.79,47,33.99,47,32  c0-0.32,0.02-0.63,0.07-0.94c0.2-1.56,0.92-2.95,1.98-4.01C50.32,25.78,52.06,25,54,25z" class="colorffd086 svgShape color0d63f8 color00ffdb"></path><path fill="#ff2965" d="M38.93,29.94C38.48,33.36,35.55,36,32,36c-3.87,0-7-3.13-7-7c0-1.13,0.26-2.19,0.74-3.13  C26.88,23.57,29.26,22,32,22c3.87,0,7,3.13,7,7C39,29.32,38.98,29.63,38.93,29.94z" class="colored6571 svgShape colorff2965"></path><path fill="#ff2965" d="M32,3c3.87,0,7,3.13,7,7c0,1.94-0.78,3.68-2.05,4.95S33.94,17,32,17c-1.41,0-2.71-0.41-3.8-1.12  c-1.27-0.82-2.26-2.04-2.78-3.49C25.15,11.65,25,10.84,25,10C25,6.13,28.13,3,32,3z" class="colorf69489 svgShape colorff2965"></path><path fill="#00ffdb" d="M16.58,15.61C16.85,16.35,17,17.16,17,18c0,1.13-0.26,2.19-0.74,3.13c-0.6,1.2-1.53,2.2-2.68,2.88  C12.54,24.64,11.31,25,10,25c-3.87,0-7-3.13-7-7s3.13-7,7-7C13.03,11,15.6,12.92,16.58,15.61z" class="color91cbd7 svgShape colorfff208"></path></svg></svg></svg></svg></svg></g></svg>