<svg id="SvgjsSvg1006" width="288" height="288" xmlns="http://www.w3.org/2000/svg" version="1.1" xmlns:xlink="http://www.w3.org/1999/xlink" xmlns:svgjs="http://svgjs.com/svgjs"><defs id="SvgjsDefs1007"></defs><g id="SvgjsG1008" transform="matrix(1,0,0,1,0,0)"><svg xmlns="http://www.w3.org/2000/svg" xmlns:svgjs="http://svgjs.com/svgjs" xmlns:xlink="http://www.w3.org/1999/xlink" width="288" height="288"><svg xmlns="http://www.w3.org/2000/svg" width="288" height="288" enable-background="new 0 0 32 32" viewBox="0 0 32 32"><path fill="none" stroke="#ff2965" stroke-linecap="round" stroke-linejoin="round" stroke-miterlimit="10" stroke-width="2" d="M17 29H7c-2.2 0-4-1.8-4-4V15c0-2.2 1.8-4 4-4h10c2.2 0 4 1.8 4 4v10c0 2.2-1.8 4-4 4z" class="stroke-000000 colorStrokefff svgStroke colorStroke0d63f8"></path><circle cx="12" cy="20" r="1" fill="none" stroke="#ff2965" stroke-linecap="round" stroke-linejoin="round" stroke-miterlimit="10" stroke-width="2" class="stroke-000000 colorStrokefff svgStroke colorStroke0d63f8"></circle><circle cx="8" cy="16" r="1" fill="none" stroke="#ff2965" stroke-linecap="round" stroke-linejoin="round" stroke-miterlimit="10" stroke-width="2" class="stroke-000000 colorStrokefff svgStroke colorStroke0d63f8"></circle><circle cx="16" cy="24" r="1" fill="none" stroke="#ff2965" stroke-linecap="round" stroke-linejoin="round" stroke-miterlimit="10" stroke-width="2" class="stroke-000000 colorStrokefff svgStroke colorStroke0d63f8"></circle><circle cx="8" cy="24" r="1" fill="none" stroke="#ff2965" stroke-linecap="round" stroke-linejoin="round" stroke-miterlimit="10" stroke-width="2" class="stroke-000000 colorStrokefff svgStroke colorStroke0d63f8"></circle><path fill="none" stroke="#ff2965" stroke-linecap="round" stroke-linejoin="round" stroke-miterlimit="10" stroke-width="2" d="M11 11V7c0-2.2 1.8-4 4-4h10c2.2 0 4 1.8 4 4v10c0 2.2-1.8 4-4 4h-4" class="stroke-000000 colorStrokefff svgStroke colorStroke0d63f8"></path><circle cx="24" cy="8" r="1" fill="none" stroke="#ff2965" stroke-linecap="round" stroke-linejoin="round" stroke-miterlimit="10" stroke-width="2" class="stroke-000000 colorStrokefff svgStroke colorStroke0d63f8"></circle><circle cx="16" cy="16" r="1" fill="none" stroke="#ff2965" stroke-linecap="round" stroke-linejoin="round" stroke-miterlimit="10" stroke-width="2" class="stroke-000000 colorStrokefff svgStroke colorStroke0d63f8"></circle></svg></svg></g></svg>