<svg id="SvgjsSvg1001" width="288" height="288" xmlns="http://www.w3.org/2000/svg" version="1.1" xmlns:xlink="http://www.w3.org/1999/xlink" xmlns:svgjs="http://svgjs.com/svgjs"><defs id="SvgjsDefs1002"></defs><g id="SvgjsG1008" transform="matrix(1,0,0,1,0,0)"><svg xmlns="http://www.w3.org/2000/svg" enable-background="new 0 0 47.5 47.5" viewBox="0 0 47.5 47.5" width="288" height="288"><defs><clipPath id="a" clipPathUnits="userSpaceOnUse"><path d="M 0,38 38,38 38,0 0,0 0,38 Z" fill="#ff1231" class="color000 svgShape"></path></clipPath></defs><g clip-path="url(#a)" transform="matrix(1.25 0 0 -1.25 0 47.5)" fill="#ff1231" class="color000 svgShape"><path fill="#ff2965" d="m 0,0 c 0,-2.209 -1.791,-4 -4,-4 l -28,0 c -2.209,0 -4,1.791 -4,4 l 0,28 c 0,2.209 1.791,4 4,4 l 28,0 c 2.209,0 4,-1.791 4,-4 L 0,0 Z" transform="translate(37 5)" class="color3b88c3 svgShape"></path><path fill="#ffffff" d="m 0,0 c 0,-1.209 -0.806,-2.294 -2.076,-2.294 -1.272,0 -2.264,0.93 -4.125,0.93 -1.333,0 -2.542,-0.713 -2.542,-2.016 0,-3.193 10.356,-1.147 10.356,-9.146 0,-4.434 -3.659,-7.194 -7.938,-7.194 -2.387,0 -7.534,0.558 -7.534,3.473 0,1.209 0.806,2.201 2.077,2.201 1.457,0 3.194,-1.209 5.209,-1.209 2.047,0 3.163,1.148 3.163,2.667 0,3.658 -10.356,1.457 -10.356,8.65 0,4.341 3.565,7.039 7.689,7.039 C -4.34,3.101 0,2.449 0,0" transform="translate(25.125 27.348)" class="colorfff svgShape"></path></g></svg></g></svg>